<mxfile host="65bd71144e">
    <diagram id="z1nlHfCE3fWqt6ZfJ-Vk" name="Page-1">
        <mxGraphModel dx="1699" dy="959" grid="1" gridSize="10" guides="1" tooltips="1" connect="1" arrows="1" fold="1" page="0" pageScale="1" pageWidth="827" pageHeight="1169" background="none" math="0" shadow="0">
            <root>
                <mxCell id="0"/>
                <mxCell id="1" parent="0"/>
                <mxCell id="2" value="Core Business Logic Entities, Ports and Services" style="rounded=1;whiteSpace=wrap;html=1;fillColor=#1ba1e2;fontColor=#ffffff;strokeColor=none;fillStyle=hatch;fontFamily=Architects Daughter;fontSource=https%3A%2F%2Ffonts.googleapis.com%2Fcss%3Ffamily%3DArchitects%2BDaughter;sketch=1;curveFitting=1;jiggle=2;fontSize=27;spacingLeft=16;spacingRight=16;" vertex="1" parent="1">
                    <mxGeometry x="30" y="400" width="420" height="120" as="geometry"/>
                </mxCell>
                <mxCell id="3" value="IAM Business Logic Entities, Ports and Services" style="rounded=1;whiteSpace=wrap;html=1;fillColor=#1ba1e2;fontColor=#ffffff;strokeColor=none;fillStyle=hatch;fontFamily=Architects Daughter;fontSource=https%3A%2F%2Ffonts.googleapis.com%2Fcss%3Ffamily%3DArchitects%2BDaughter;sketch=1;curveFitting=1;jiggle=2;fontSize=14;spacingLeft=16;spacingRight=16;opacity=30;" vertex="1" parent="1">
                    <mxGeometry x="30" y="320" width="200" height="70" as="geometry"/>
                </mxCell>
                <mxCell id="4" value="Scanner Business Logic Entities, Ports and Services" style="rounded=1;whiteSpace=wrap;html=1;fillColor=#1ba1e2;fontColor=#ffffff;strokeColor=none;fillStyle=hatch;fontFamily=Architects Daughter;fontSource=https%3A%2F%2Ffonts.googleapis.com%2Fcss%3Ffamily%3DArchitects%2BDaughter;sketch=1;curveFitting=1;jiggle=2;fontSize=14;spacingLeft=16;spacingRight=16;" vertex="1" parent="1">
                    <mxGeometry x="250" y="320" width="200" height="70" as="geometry"/>
                </mxCell>
                <mxCell id="30" style="edgeStyle=none;sketch=1;hachureGap=4;jiggle=2;curveFitting=1;html=1;exitX=0.5;exitY=0;exitDx=0;exitDy=0;entryX=0.5;entryY=1;entryDx=0;entryDy=0;fontFamily=Architects Daughter;fontSource=https%3A%2F%2Ffonts.googleapis.com%2Fcss%3Ffamily%3DArchitects%2BDaughter;fontSize=17;fontColor=default;dashed=1;dashPattern=12 12;fillColor=#60a917;strokeColor=#52D600;" edge="1" parent="1" source="6" target="24">
                    <mxGeometry relative="1" as="geometry">
                        <Array as="points">
                            <mxPoint x="130" y="220"/>
                            <mxPoint x="-394" y="220"/>
                        </Array>
                    </mxGeometry>
                </mxCell>
                <mxCell id="6" value="&lt;span style=&quot;color: rgb(255, 255, 255); font-size: 14px;&quot;&gt;IAM App Component&lt;/span&gt;" style="shape=loopLimit;whiteSpace=wrap;html=1;sketch=1;hachureGap=4;jiggle=2;curveFitting=1;fontFamily=Architects Daughter;fontSource=https%3A%2F%2Ffonts.googleapis.com%2Fcss%3Ffamily%3DArchitects%2BDaughter;fontSize=27;fillColor=#1ba1e2;fontColor=#ffffff;strokeColor=none;spacingLeft=16;spacingRight=16;opacity=30;" vertex="1" parent="1">
                    <mxGeometry x="30" y="270" width="200" height="40" as="geometry"/>
                </mxCell>
                <mxCell id="31" style="edgeStyle=none;sketch=1;hachureGap=4;jiggle=2;curveFitting=1;html=1;exitX=0.5;exitY=0;exitDx=0;exitDy=0;entryX=0.5;entryY=1;entryDx=0;entryDy=0;dashed=1;dashPattern=12 12;strokeColor=#6F0000;fontFamily=Architects Daughter;fontSource=https%3A%2F%2Ffonts.googleapis.com%2Fcss%3Ffamily%3DArchitects%2BDaughter;fontSize=17;fontColor=default;fillColor=#a20025;" edge="1" parent="1" source="7" target="26">
                    <mxGeometry relative="1" as="geometry">
                        <Array as="points">
                            <mxPoint x="350" y="190"/>
                            <mxPoint x="-284" y="190"/>
                        </Array>
                    </mxGeometry>
                </mxCell>
                <mxCell id="7" value="&lt;span style=&quot;color: rgb(255, 255, 255); font-size: 14px;&quot;&gt;Scanner App Component&lt;/span&gt;" style="shape=loopLimit;whiteSpace=wrap;html=1;sketch=1;hachureGap=4;jiggle=2;curveFitting=1;fontFamily=Architects Daughter;fontSource=https%3A%2F%2Ffonts.googleapis.com%2Fcss%3Ffamily%3DArchitects%2BDaughter;fontSize=27;fillColor=#1ba1e2;fontColor=#ffffff;strokeColor=none;spacingLeft=16;spacingRight=16;" vertex="1" parent="1">
                    <mxGeometry x="250" y="270" width="200" height="40" as="geometry"/>
                </mxCell>
                <mxCell id="8" value="" style="endArrow=none;dashed=1;html=1;dashPattern=1 3;strokeWidth=2;sketch=1;hachureGap=4;jiggle=2;curveFitting=1;fontFamily=Architects Daughter;fontSource=https%3A%2F%2Ffonts.googleapis.com%2Fcss%3Ffamily%3DArchitects%2BDaughter;fontSize=27;" edge="1" parent="1">
                    <mxGeometry width="50" height="50" relative="1" as="geometry">
                        <mxPoint x="-480" y="160" as="sourcePoint"/>
                        <mxPoint x="680" y="160" as="targetPoint"/>
                    </mxGeometry>
                </mxCell>
                <mxCell id="9" value="TRPC Server" style="rounded=1;whiteSpace=wrap;html=1;fillColor=#1ba1e2;fontColor=#ffffff;strokeColor=none;fillStyle=hatch;fontFamily=Architects Daughter;fontSource=https%3A%2F%2Ffonts.googleapis.com%2Fcss%3Ffamily%3DArchitects%2BDaughter;sketch=1;curveFitting=1;jiggle=2;fontSize=14;spacingLeft=16;spacingRight=16;" vertex="1" parent="1">
                    <mxGeometry x="-439" y="40" width="200" height="40" as="geometry"/>
                </mxCell>
                <mxCell id="21" style="edgeStyle=none;sketch=1;hachureGap=4;jiggle=2;curveFitting=1;html=1;exitX=0.5;exitY=0;exitDx=0;exitDy=0;fontFamily=Architects Daughter;fontSource=https%3A%2F%2Ffonts.googleapis.com%2Fcss%3Ffamily%3DArchitects%2BDaughter;fontSize=17;fontColor=default;entryX=0.5;entryY=1;entryDx=0;entryDy=0;" edge="1" parent="1" source="10" target="18">
                    <mxGeometry relative="1" as="geometry">
                        <mxPoint x="-429" y="-130" as="targetPoint"/>
                        <Array as="points">
                            <mxPoint x="-339" y="-120"/>
                            <mxPoint x="-439" y="-120"/>
                        </Array>
                    </mxGeometry>
                </mxCell>
                <mxCell id="22" style="edgeStyle=none;sketch=1;hachureGap=4;jiggle=2;curveFitting=1;html=1;entryX=0.5;entryY=1;entryDx=0;entryDy=0;fontFamily=Architects Daughter;fontSource=https%3A%2F%2Ffonts.googleapis.com%2Fcss%3Ffamily%3DArchitects%2BDaughter;fontSize=17;fontColor=default;" edge="1" parent="1" source="10" target="19">
                    <mxGeometry relative="1" as="geometry"/>
                </mxCell>
                <mxCell id="23" style="edgeStyle=none;sketch=1;hachureGap=4;jiggle=2;curveFitting=1;html=1;entryX=0.5;entryY=1;entryDx=0;entryDy=0;fontFamily=Architects Daughter;fontSource=https%3A%2F%2Ffonts.googleapis.com%2Fcss%3Ffamily%3DArchitects%2BDaughter;fontSize=17;fontColor=default;" edge="1" parent="1" source="10" target="20">
                    <mxGeometry relative="1" as="geometry">
                        <Array as="points">
                            <mxPoint x="-339" y="-120"/>
                            <mxPoint x="-239" y="-120"/>
                        </Array>
                    </mxGeometry>
                </mxCell>
                <mxCell id="10" value="TRPC Client" style="rounded=1;whiteSpace=wrap;html=1;fillColor=#1ba1e2;fontColor=#ffffff;strokeColor=none;fillStyle=hatch;fontFamily=Architects Daughter;fontSource=https%3A%2F%2Ffonts.googleapis.com%2Fcss%3Ffamily%3DArchitects%2BDaughter;sketch=1;curveFitting=1;jiggle=2;fontSize=14;spacingLeft=16;spacingRight=16;" vertex="1" parent="1">
                    <mxGeometry x="-439" y="-80" width="200" height="40" as="geometry"/>
                </mxCell>
                <mxCell id="11" value="" style="endArrow=none;dashed=1;html=1;dashPattern=1 3;strokeWidth=2;sketch=1;hachureGap=4;jiggle=2;curveFitting=1;fontFamily=Architects Daughter;fontSource=https%3A%2F%2Ffonts.googleapis.com%2Fcss%3Ffamily%3DArchitects%2BDaughter;fontSize=27;" edge="1" parent="1">
                    <mxGeometry width="50" height="50" relative="1" as="geometry">
                        <mxPoint x="-479" as="sourcePoint"/>
                        <mxPoint x="-199" as="targetPoint"/>
                    </mxGeometry>
                </mxCell>
                <mxCell id="12" value="" style="shape=flexArrow;endArrow=classic;startArrow=classic;html=1;sketch=1;hachureGap=4;jiggle=2;curveFitting=1;fontFamily=Architects Daughter;fontSource=https%3A%2F%2Ffonts.googleapis.com%2Fcss%3Ffamily%3DArchitects%2BDaughter;fontSize=27;entryX=0.5;entryY=1;entryDx=0;entryDy=0;exitX=0.5;exitY=0;exitDx=0;exitDy=0;" edge="1" parent="1" source="9" target="10">
                    <mxGeometry width="100" height="100" relative="1" as="geometry">
                        <mxPoint x="-199" y="130" as="sourcePoint"/>
                        <mxPoint x="-99" y="30" as="targetPoint"/>
                    </mxGeometry>
                </mxCell>
                <mxCell id="14" value="HTTP Bridge" style="edgeLabel;html=1;align=center;verticalAlign=middle;resizable=0;points=[];fontSize=18;fontFamily=Architects Daughter;" vertex="1" connectable="0" parent="12">
                    <mxGeometry x="-0.2859" y="2" relative="1" as="geometry">
                        <mxPoint x="2" y="-11" as="offset"/>
                    </mxGeometry>
                </mxCell>
                <mxCell id="18" value="Web Client" style="ellipse;whiteSpace=wrap;html=1;aspect=fixed;sketch=1;hachureGap=4;jiggle=2;curveFitting=1;fontFamily=Architects Daughter;fontSource=https%3A%2F%2Ffonts.googleapis.com%2Fcss%3Ffamily%3DArchitects%2BDaughter;fontSize=18;fontColor=default;fillColor=#1ba1e2;strokeColor=none;opacity=30;" vertex="1" parent="1">
                    <mxGeometry x="-479" y="-240" width="80" height="80" as="geometry"/>
                </mxCell>
                <mxCell id="19" value="Mobile Client" style="ellipse;whiteSpace=wrap;html=1;aspect=fixed;sketch=1;hachureGap=4;jiggle=2;curveFitting=1;fontFamily=Architects Daughter;fontSource=https%3A%2F%2Ffonts.googleapis.com%2Fcss%3Ffamily%3DArchitects%2BDaughter;fontSize=18;fontColor=#ffffff;fillColor=#1ba1e2;strokeColor=none;opacity=30;" vertex="1" parent="1">
                    <mxGeometry x="-379" y="-240" width="80" height="80" as="geometry"/>
                </mxCell>
                <mxCell id="20" value="CLI Client" style="ellipse;whiteSpace=wrap;html=1;aspect=fixed;sketch=1;hachureGap=4;jiggle=2;curveFitting=1;fontFamily=Architects Daughter;fontSource=https%3A%2F%2Ffonts.googleapis.com%2Fcss%3Ffamily%3DArchitects%2BDaughter;fontSize=18;fontColor=default;fillColor=#1ba1e2;strokeColor=none;" vertex="1" parent="1">
                    <mxGeometry x="-279" y="-240" width="80" height="80" as="geometry"/>
                </mxCell>
                <mxCell id="29" style="edgeStyle=none;sketch=1;hachureGap=4;jiggle=2;curveFitting=1;html=1;exitX=0.5;exitY=0;exitDx=0;exitDy=0;entryX=0.223;entryY=1;entryDx=0;entryDy=0;entryPerimeter=0;fontFamily=Architects Daughter;fontSource=https%3A%2F%2Ffonts.googleapis.com%2Fcss%3Ffamily%3DArchitects%2BDaughter;fontSize=17;fontColor=default;" edge="1" parent="1" source="24" target="9">
                    <mxGeometry relative="1" as="geometry"/>
                </mxCell>
                <mxCell id="24" value="IAM&lt;br&gt;Controller" style="rounded=1;whiteSpace=wrap;html=1;fillColor=#1ba1e2;fontColor=#ffffff;strokeColor=none;fillStyle=hatch;fontFamily=Architects Daughter;fontSource=https%3A%2F%2Ffonts.googleapis.com%2Fcss%3Ffamily%3DArchitects%2BDaughter;sketch=1;curveFitting=1;jiggle=2;fontSize=14;spacingLeft=16;spacingRight=16;opacity=30;" vertex="1" parent="1">
                    <mxGeometry x="-439" y="100" width="89" height="40" as="geometry"/>
                </mxCell>
                <mxCell id="28" style="edgeStyle=none;sketch=1;hachureGap=4;jiggle=2;curveFitting=1;html=1;exitX=0.5;exitY=0;exitDx=0;exitDy=0;entryX=0.773;entryY=1;entryDx=0;entryDy=0;entryPerimeter=0;fontFamily=Architects Daughter;fontSource=https%3A%2F%2Ffonts.googleapis.com%2Fcss%3Ffamily%3DArchitects%2BDaughter;fontSize=17;fontColor=default;" edge="1" parent="1" source="26" target="9">
                    <mxGeometry relative="1" as="geometry"/>
                </mxCell>
                <mxCell id="26" value="Scanner&lt;br&gt;Controller" style="rounded=1;whiteSpace=wrap;html=1;fillColor=#1ba1e2;fontColor=#ffffff;strokeColor=none;fillStyle=hatch;fontFamily=Architects Daughter;fontSource=https%3A%2F%2Ffonts.googleapis.com%2Fcss%3Ffamily%3DArchitects%2BDaughter;sketch=1;curveFitting=1;jiggle=2;fontSize=14;spacingLeft=16;spacingRight=16;" vertex="1" parent="1">
                    <mxGeometry x="-330" y="100" width="91" height="40" as="geometry"/>
                </mxCell>
            </root>
        </mxGraphModel>
    </diagram>
</mxfile>